<mxfile host="app.diagrams.net" modified="2023-11-28T19:50:59.259Z" agent="Mozilla/5.0 (Macintosh; Intel Mac OS X 10_15_7) AppleWebKit/537.36 (KHTML, like Gecko) Chrome/117.0.0.0 Safari/537.36" etag="-W2PzFXlYgz2mDNjDPYK" version="22.1.4" type="device">
  <diagram name="Sayfa -1" id="Qw63XjKKH6EkeKbqogJP">
    <mxGraphModel dx="4896" dy="2796" grid="1" gridSize="10" guides="1" tooltips="1" connect="1" arrows="1" fold="1" page="1" pageScale="1" pageWidth="3100" pageHeight="3000" math="0" shadow="0">
      <root>
        <mxCell id="0" />
        <mxCell id="1" parent="0" />
        <mxCell id="5j7AbYeZaHDb51erD1fv-48" style="edgeStyle=orthogonalEdgeStyle;rounded=0;orthogonalLoop=1;jettySize=auto;html=1;" parent="1" source="5j7AbYeZaHDb51erD1fv-46" target="5j7AbYeZaHDb51erD1fv-50" edge="1">
          <mxGeometry relative="1" as="geometry">
            <mxPoint x="620" y="1225" as="targetPoint" />
            <mxPoint x="400" y="1225" as="sourcePoint" />
            <Array as="points">
              <mxPoint x="410" y="1464" />
              <mxPoint x="410" y="1225" />
            </Array>
          </mxGeometry>
        </mxCell>
        <mxCell id="5j7AbYeZaHDb51erD1fv-46" value="&lt;hr&gt;" style="shape=umlActor;verticalLabelPosition=bottom;verticalAlign=top;html=1;outlineConnect=0;" parent="1" vertex="1">
          <mxGeometry x="160" y="1304" width="160" height="320" as="geometry" />
        </mxCell>
        <mxCell id="5j7AbYeZaHDb51erD1fv-50" value="&lt;font style=&quot;font-size: 23px;&quot;&gt;WebUI&lt;br&gt;Mobile&lt;/font&gt;" style="rounded=0;whiteSpace=wrap;html=1;direction=south;" parent="1" vertex="1">
          <mxGeometry x="490" y="1030" width="160" height="390" as="geometry" />
        </mxCell>
        <mxCell id="5j7AbYeZaHDb51erD1fv-71" value="" style="rounded=1;whiteSpace=wrap;html=1;" parent="1" vertex="1">
          <mxGeometry x="1680" y="1020" width="360" height="130" as="geometry" />
        </mxCell>
        <mxCell id="5j7AbYeZaHDb51erD1fv-72" value="" style="rounded=0;whiteSpace=wrap;html=1;" parent="1" vertex="1">
          <mxGeometry x="1680" y="1100" width="180" height="90" as="geometry" />
        </mxCell>
        <mxCell id="5j7AbYeZaHDb51erD1fv-73" value="" style="rounded=0;whiteSpace=wrap;html=1;" parent="1" vertex="1">
          <mxGeometry x="1860" y="1100" width="180" height="90" as="geometry" />
        </mxCell>
        <mxCell id="5j7AbYeZaHDb51erD1fv-76" value="" style="rounded=1;whiteSpace=wrap;html=1;" parent="1" vertex="1">
          <mxGeometry x="2480" y="1023" width="360" height="130" as="geometry" />
        </mxCell>
        <mxCell id="5j7AbYeZaHDb51erD1fv-74" value="" style="rounded=0;whiteSpace=wrap;html=1;" parent="1" vertex="1">
          <mxGeometry x="2480" y="1103" width="180" height="90" as="geometry" />
        </mxCell>
        <mxCell id="5j7AbYeZaHDb51erD1fv-75" value="" style="rounded=0;whiteSpace=wrap;html=1;" parent="1" vertex="1">
          <mxGeometry x="2660" y="1103" width="180" height="90" as="geometry" />
        </mxCell>
        <mxCell id="5j7AbYeZaHDb51erD1fv-77" value="" style="rhombus;whiteSpace=wrap;html=1;" parent="1" vertex="1">
          <mxGeometry x="2130" y="1304" width="270" height="270" as="geometry" />
        </mxCell>
        <mxCell id="5j7AbYeZaHDb51erD1fv-78" value="" style="strokeWidth=2;html=1;shape=mxgraph.flowchart.database;whiteSpace=wrap;" parent="1" vertex="1">
          <mxGeometry x="2730" y="1414" width="250" height="250" as="geometry" />
        </mxCell>
        <mxCell id="5j7AbYeZaHDb51erD1fv-80" value="" style="rounded=0;whiteSpace=wrap;html=1;" parent="1" vertex="1">
          <mxGeometry x="2045" y="470" width="440" height="220" as="geometry" />
        </mxCell>
        <mxCell id="5j7AbYeZaHDb51erD1fv-81" value="" style="endArrow=classic;html=1;rounded=0;entryX=-0.001;entryY=0.567;entryDx=0;entryDy=0;entryPerimeter=0;exitX=0.321;exitY=-0.014;exitDx=0;exitDy=0;exitPerimeter=0;" parent="1" source="5j7AbYeZaHDb51erD1fv-50" target="5j7AbYeZaHDb51erD1fv-72" edge="1">
          <mxGeometry width="50" height="50" relative="1" as="geometry">
            <mxPoint x="1530" y="1050" as="sourcePoint" />
            <mxPoint x="1580" y="1000" as="targetPoint" />
          </mxGeometry>
        </mxCell>
        <mxCell id="5j7AbYeZaHDb51erD1fv-83" value="" style="endArrow=classic;html=1;rounded=0;entryX=0.615;entryY=1.06;entryDx=0;entryDy=0;entryPerimeter=0;" parent="1" source="5j7AbYeZaHDb51erD1fv-110" target="5j7AbYeZaHDb51erD1fv-73" edge="1">
          <mxGeometry width="50" height="50" relative="1" as="geometry">
            <mxPoint x="2000" y="1380" as="sourcePoint" />
            <mxPoint x="1971" y="1039.9999999999995" as="targetPoint" />
            <Array as="points">
              <mxPoint x="1970" y="1380" />
              <mxPoint x="1970" y="1359.17" />
            </Array>
          </mxGeometry>
        </mxCell>
        <mxCell id="5j7AbYeZaHDb51erD1fv-84" value="" style="endArrow=classic;html=1;rounded=0;entryX=0;entryY=0.228;entryDx=0;entryDy=0;entryPerimeter=0;exitX=0.278;exitY=0.015;exitDx=0;exitDy=0;exitPerimeter=0;" parent="1" target="5j7AbYeZaHDb51erD1fv-80" edge="1" source="5j7AbYeZaHDb51erD1fv-71">
          <mxGeometry width="50" height="50" relative="1" as="geometry">
            <mxPoint x="1780" y="730" as="sourcePoint" />
            <mxPoint x="1780" y="450" as="targetPoint" />
            <Array as="points">
              <mxPoint x="1780" y="520" />
            </Array>
          </mxGeometry>
        </mxCell>
        <mxCell id="5j7AbYeZaHDb51erD1fv-85" value="" style="endArrow=classic;html=1;rounded=0;exitX=0.002;exitY=0.785;exitDx=0;exitDy=0;exitPerimeter=0;entryX=0.611;entryY=0.015;entryDx=0;entryDy=0;entryPerimeter=0;" parent="1" source="5j7AbYeZaHDb51erD1fv-80" target="5j7AbYeZaHDb51erD1fv-71" edge="1">
          <mxGeometry width="50" height="50" relative="1" as="geometry">
            <mxPoint x="1920" y="650" as="sourcePoint" />
            <mxPoint x="1900" y="690" as="targetPoint" />
            <Array as="points">
              <mxPoint x="1900" y="643" />
            </Array>
          </mxGeometry>
        </mxCell>
        <mxCell id="5j7AbYeZaHDb51erD1fv-86" value="" style="endArrow=classic;html=1;rounded=0;exitX=0.5;exitY=0;exitDx=0;exitDy=0;entryX=0.997;entryY=0.592;entryDx=0;entryDy=0;entryPerimeter=0;" parent="1" source="5j7AbYeZaHDb51erD1fv-76" target="5j7AbYeZaHDb51erD1fv-80" edge="1">
          <mxGeometry width="50" height="50" relative="1" as="geometry">
            <mxPoint x="2620" y="660" as="sourcePoint" />
            <mxPoint x="2660" y="420" as="targetPoint" />
            <Array as="points">
              <mxPoint x="2660" y="600" />
            </Array>
          </mxGeometry>
        </mxCell>
        <mxCell id="5j7AbYeZaHDb51erD1fv-87" value="" style="endArrow=classic;html=1;rounded=0;entryX=1;entryY=0.5;entryDx=0;entryDy=0;exitX=0.549;exitY=0.988;exitDx=0;exitDy=0;exitPerimeter=0;" parent="1" source="5j7AbYeZaHDb51erD1fv-74" target="5j7AbYeZaHDb51erD1fv-77" edge="1">
          <mxGeometry width="50" height="50" relative="1" as="geometry">
            <mxPoint x="2580" y="1080" as="sourcePoint" />
            <mxPoint x="2580" y="1550" as="targetPoint" />
            <Array as="points">
              <mxPoint x="2580" y="1440" />
            </Array>
          </mxGeometry>
        </mxCell>
        <mxCell id="5j7AbYeZaHDb51erD1fv-88" value="&lt;font style=&quot;font-size: 28px;&quot;&gt;POST addBook&lt;br&gt;{isbn}&lt;/font&gt;" style="text;html=1;align=center;verticalAlign=middle;resizable=0;points=[];autosize=1;strokeColor=none;fillColor=none;" parent="1" vertex="1">
          <mxGeometry x="1340" y="1038" width="220" height="80" as="geometry" />
        </mxCell>
        <mxCell id="5j7AbYeZaHDb51erD1fv-89" value="&lt;span style=&quot;font-size: 28px;&quot;&gt;discovery&lt;br&gt;book-service&lt;br&gt;&lt;/span&gt;" style="text;html=1;align=center;verticalAlign=middle;resizable=0;points=[];autosize=1;strokeColor=none;fillColor=none;" parent="1" vertex="1">
          <mxGeometry x="1570" y="600" width="180" height="80" as="geometry" />
        </mxCell>
        <mxCell id="5j7AbYeZaHDb51erD1fv-92" value="&lt;span style=&quot;font-size: 28px;&quot;&gt;localhost:8080&lt;br&gt;&lt;/span&gt;" style="text;html=1;align=center;verticalAlign=middle;resizable=0;points=[];autosize=1;strokeColor=none;fillColor=none;" parent="1" vertex="1">
          <mxGeometry x="1900" y="725" width="200" height="50" as="geometry" />
        </mxCell>
        <mxCell id="5j7AbYeZaHDb51erD1fv-93" value="&lt;font style=&quot;font-size: 44px;&quot;&gt;EurekaServer&lt;/font&gt;" style="text;html=1;align=center;verticalAlign=middle;resizable=0;points=[];autosize=1;strokeColor=none;fillColor=none;" parent="1" vertex="1">
          <mxGeometry x="2120" y="545" width="290" height="70" as="geometry" />
        </mxCell>
        <mxCell id="5j7AbYeZaHDb51erD1fv-94" value="&lt;font style=&quot;font-size: 33px;&quot;&gt;LibraryService&lt;/font&gt;" style="text;html=1;align=center;verticalAlign=middle;resizable=0;points=[];autosize=1;strokeColor=none;fillColor=none;" parent="1" vertex="1">
          <mxGeometry x="1745" y="1040" width="230" height="50" as="geometry" />
        </mxCell>
        <mxCell id="5j7AbYeZaHDb51erD1fv-95" value="&lt;font style=&quot;font-size: 27px;&quot;&gt;LibraryAPI&lt;/font&gt;" style="text;html=1;align=center;verticalAlign=middle;resizable=0;points=[];autosize=1;strokeColor=none;fillColor=none;" parent="1" vertex="1">
          <mxGeometry x="1695" y="1120" width="150" height="50" as="geometry" />
        </mxCell>
        <mxCell id="5j7AbYeZaHDb51erD1fv-96" value="&lt;font style=&quot;font-size: 23px;&quot;&gt;EurekaClient&lt;/font&gt;" style="text;html=1;align=center;verticalAlign=middle;resizable=0;points=[];autosize=1;strokeColor=none;fillColor=none;" parent="1" vertex="1">
          <mxGeometry x="1870" y="1125" width="160" height="40" as="geometry" />
        </mxCell>
        <mxCell id="5j7AbYeZaHDb51erD1fv-97" value="&lt;font style=&quot;font-size: 33px;&quot;&gt;BookService&lt;/font&gt;" style="text;html=1;align=center;verticalAlign=middle;resizable=0;points=[];autosize=1;strokeColor=none;fillColor=none;" parent="1" vertex="1">
          <mxGeometry x="2555" y="1038" width="210" height="50" as="geometry" />
        </mxCell>
        <mxCell id="5j7AbYeZaHDb51erD1fv-99" value="&lt;font style=&quot;font-size: 27px;&quot;&gt;BookAPI&lt;/font&gt;" style="text;html=1;align=center;verticalAlign=middle;resizable=0;points=[];autosize=1;strokeColor=none;fillColor=none;" parent="1" vertex="1">
          <mxGeometry x="2505" y="1123" width="130" height="50" as="geometry" />
        </mxCell>
        <mxCell id="5j7AbYeZaHDb51erD1fv-100" value="&lt;font style=&quot;font-size: 23px;&quot;&gt;EurekaClient&lt;/font&gt;" style="text;html=1;align=center;verticalAlign=middle;resizable=0;points=[];autosize=1;strokeColor=none;fillColor=none;" parent="1" vertex="1">
          <mxGeometry x="2670" y="1128" width="160" height="40" as="geometry" />
        </mxCell>
        <mxCell id="5j7AbYeZaHDb51erD1fv-103" value="&lt;font style=&quot;font-size: 27px;&quot;&gt;BookDB&lt;/font&gt;" style="text;html=1;align=center;verticalAlign=middle;resizable=0;points=[];autosize=1;strokeColor=none;fillColor=none;" parent="1" vertex="1">
          <mxGeometry x="2795" y="1543" width="120" height="50" as="geometry" />
        </mxCell>
        <mxCell id="5j7AbYeZaHDb51erD1fv-104" value="&lt;font style=&quot;font-size: 27px;&quot;&gt;isIsbnExist&lt;/font&gt;" style="text;html=1;align=center;verticalAlign=middle;resizable=0;points=[];autosize=1;strokeColor=none;fillColor=none;" parent="1" vertex="1">
          <mxGeometry x="2190" y="1414" width="150" height="50" as="geometry" />
        </mxCell>
        <mxCell id="5j7AbYeZaHDb51erD1fv-105" value="&lt;font style=&quot;font-size: 95px;&quot;&gt;V5 Book.Online&lt;/font&gt;" style="text;html=1;align=center;verticalAlign=middle;resizable=0;points=[];autosize=1;strokeColor=none;fillColor=none;" parent="1" vertex="1">
          <mxGeometry x="1210" y="65" width="680" height="130" as="geometry" />
        </mxCell>
        <mxCell id="5j7AbYeZaHDb51erD1fv-106" value="" style="endArrow=classic;html=1;rounded=0;exitX=0.998;exitY=0.557;exitDx=0;exitDy=0;exitPerimeter=0;entryX=0;entryY=0.5;entryDx=0;entryDy=0;" parent="1" source="5j7AbYeZaHDb51erD1fv-73" target="5j7AbYeZaHDb51erD1fv-74" edge="1">
          <mxGeometry width="50" height="50" relative="1" as="geometry">
            <mxPoint x="2080" y="1000" as="sourcePoint" />
            <mxPoint x="2220" y="1000" as="targetPoint" />
          </mxGeometry>
        </mxCell>
        <mxCell id="5j7AbYeZaHDb51erD1fv-107" value="&lt;font style=&quot;font-size: 30px;&quot;&gt;FeignClient&lt;br&gt;http rest call&lt;/font&gt;" style="text;html=1;align=center;verticalAlign=middle;resizable=0;points=[];autosize=1;strokeColor=none;fillColor=none;" parent="1" vertex="1">
          <mxGeometry x="2150" y="880" width="190" height="90" as="geometry" />
        </mxCell>
        <mxCell id="5j7AbYeZaHDb51erD1fv-108" value="&lt;font style=&quot;font-size: 35px;&quot;&gt;book-service/book/{isbn}&lt;/font&gt;" style="text;html=1;align=center;verticalAlign=middle;resizable=0;points=[];autosize=1;strokeColor=none;fillColor=none;" parent="1" vertex="1">
          <mxGeometry x="2065" y="1153" width="400" height="60" as="geometry" />
        </mxCell>
        <mxCell id="5j7AbYeZaHDb51erD1fv-109" value="&lt;font style=&quot;font-size: 25px;&quot;&gt;registry&lt;br&gt;book-service&lt;br&gt;localhost:8080&lt;/font&gt;" style="text;html=1;align=center;verticalAlign=middle;resizable=0;points=[];autosize=1;strokeColor=none;fillColor=none;" parent="1" vertex="1">
          <mxGeometry x="2710" y="725" width="180" height="100" as="geometry" />
        </mxCell>
        <mxCell id="5j7AbYeZaHDb51erD1fv-111" value="" style="endArrow=none;html=1;rounded=0;entryX=0.214;entryY=0.28;entryDx=0;entryDy=0;entryPerimeter=0;" parent="1" target="5j7AbYeZaHDb51erD1fv-77" edge="1">
          <mxGeometry width="50" height="50" relative="1" as="geometry">
            <mxPoint x="2080" y="1380" as="sourcePoint" />
            <mxPoint x="2185.08" y="1380.88" as="targetPoint" />
          </mxGeometry>
        </mxCell>
        <mxCell id="5j7AbYeZaHDb51erD1fv-112" value="" style="endArrow=none;html=1;rounded=0;entryX=0.214;entryY=0.28;entryDx=0;entryDy=0;entryPerimeter=0;" parent="1" edge="1">
          <mxGeometry width="50" height="50" relative="1" as="geometry">
            <mxPoint x="1980" y="1520" as="sourcePoint" />
            <mxPoint x="2208" y="1520.4" as="targetPoint" />
          </mxGeometry>
        </mxCell>
        <mxCell id="5j7AbYeZaHDb51erD1fv-113" value="&lt;font style=&quot;font-size: 20px;&quot;&gt;true&lt;/font&gt;" style="text;html=1;align=center;verticalAlign=middle;resizable=0;points=[];autosize=1;strokeColor=none;fillColor=none;" parent="1" vertex="1">
          <mxGeometry x="1919" y="1500" width="60" height="40" as="geometry" />
        </mxCell>
        <mxCell id="5j7AbYeZaHDb51erD1fv-114" value="" style="endArrow=classic;html=1;rounded=0;entryX=0.222;entryY=1.003;entryDx=0;entryDy=0;entryPerimeter=0;" parent="1" source="5j7AbYeZaHDb51erD1fv-113" target="5j7AbYeZaHDb51erD1fv-73" edge="1">
          <mxGeometry width="50" height="50" relative="1" as="geometry">
            <mxPoint x="1919" y="1520" as="sourcePoint" />
            <mxPoint x="1899" y="1210" as="targetPoint" />
            <Array as="points">
              <mxPoint x="1899" y="1520" />
            </Array>
          </mxGeometry>
        </mxCell>
        <mxCell id="5j7AbYeZaHDb51erD1fv-116" value="&lt;font style=&quot;font-size: 25px;&quot;&gt;BookNotFoundException&lt;/font&gt;" style="text;html=1;align=center;verticalAlign=middle;resizable=0;points=[];autosize=1;strokeColor=none;fillColor=none;" parent="1" vertex="1">
          <mxGeometry x="2020" y="1230" width="300" height="40" as="geometry" />
        </mxCell>
        <mxCell id="5j7AbYeZaHDb51erD1fv-135" value="" style="rounded=1;whiteSpace=wrap;html=1;" parent="1" vertex="1">
          <mxGeometry x="1680" y="780" width="360" height="130" as="geometry" />
        </mxCell>
        <mxCell id="5j7AbYeZaHDb51erD1fv-136" value="" style="rounded=0;whiteSpace=wrap;html=1;" parent="1" vertex="1">
          <mxGeometry x="1680" y="860" width="180" height="90" as="geometry" />
        </mxCell>
        <mxCell id="5j7AbYeZaHDb51erD1fv-137" value="" style="rounded=0;whiteSpace=wrap;html=1;" parent="1" vertex="1">
          <mxGeometry x="1860" y="860" width="180" height="90" as="geometry" />
        </mxCell>
        <mxCell id="5j7AbYeZaHDb51erD1fv-138" value="&lt;font style=&quot;font-size: 33px;&quot;&gt;LibraryService&lt;/font&gt;" style="text;html=1;align=center;verticalAlign=middle;resizable=0;points=[];autosize=1;strokeColor=none;fillColor=none;" parent="1" vertex="1">
          <mxGeometry x="1745" y="800" width="230" height="50" as="geometry" />
        </mxCell>
        <mxCell id="5j7AbYeZaHDb51erD1fv-139" value="&lt;font style=&quot;font-size: 27px;&quot;&gt;LibraryAPI&lt;/font&gt;" style="text;html=1;align=center;verticalAlign=middle;resizable=0;points=[];autosize=1;strokeColor=none;fillColor=none;" parent="1" vertex="1">
          <mxGeometry x="1695" y="880" width="150" height="50" as="geometry" />
        </mxCell>
        <mxCell id="5j7AbYeZaHDb51erD1fv-140" value="&lt;font style=&quot;font-size: 23px;&quot;&gt;EurekaClient&lt;/font&gt;" style="text;html=1;align=center;verticalAlign=middle;resizable=0;points=[];autosize=1;strokeColor=none;fillColor=none;" parent="1" vertex="1">
          <mxGeometry x="1870" y="885" width="160" height="40" as="geometry" />
        </mxCell>
        <mxCell id="5j7AbYeZaHDb51erD1fv-142" value="&lt;font style=&quot;font-size: 30px;&quot;&gt;8081 / dev&lt;/font&gt;" style="text;html=1;align=center;verticalAlign=middle;resizable=0;points=[];autosize=1;strokeColor=none;fillColor=none;" parent="1" vertex="1">
          <mxGeometry x="2060" y="820" width="160" height="50" as="geometry" />
        </mxCell>
        <mxCell id="5j7AbYeZaHDb51erD1fv-143" value="&lt;font style=&quot;font-size: 30px;&quot;&gt;8080 / default&lt;/font&gt;" style="text;html=1;align=center;verticalAlign=middle;resizable=0;points=[];autosize=1;strokeColor=none;fillColor=none;" parent="1" vertex="1">
          <mxGeometry x="2060" y="1078" width="210" height="50" as="geometry" />
        </mxCell>
        <mxCell id="5j7AbYeZaHDb51erD1fv-144" value="&lt;font style=&quot;font-size: 28px;&quot;&gt;API&lt;br&gt;GATEWAY&lt;/font&gt;" style="rounded=0;whiteSpace=wrap;html=1;direction=south;" parent="1" vertex="1">
          <mxGeometry x="1040" y="925" width="160" height="390" as="geometry" />
        </mxCell>
        <mxCell id="5j7AbYeZaHDb51erD1fv-145" value="&lt;hr&gt;" style="shape=umlActor;verticalLabelPosition=bottom;verticalAlign=top;html=1;outlineConnect=0;" parent="1" vertex="1">
          <mxGeometry x="160" y="853" width="160" height="320" as="geometry" />
        </mxCell>
        <mxCell id="5j7AbYeZaHDb51erD1fv-146" value="" style="endArrow=classic;html=1;rounded=0;entryX=0.385;entryY=1.006;entryDx=0;entryDy=0;entryPerimeter=0;" parent="1" source="5j7AbYeZaHDb51erD1fv-145" target="5j7AbYeZaHDb51erD1fv-50" edge="1">
          <mxGeometry width="50" height="50" relative="1" as="geometry">
            <mxPoint x="350" y="1060" as="sourcePoint" />
            <mxPoint x="400" y="1010" as="targetPoint" />
            <Array as="points">
              <mxPoint x="410" y="1013" />
              <mxPoint x="410" y="1180" />
            </Array>
          </mxGeometry>
        </mxCell>
        <mxCell id="5j7AbYeZaHDb51erD1fv-147" value="" style="endArrow=none;html=1;rounded=0;exitX=0.591;exitY=-0.015;exitDx=0;exitDy=0;exitPerimeter=0;entryX=0.863;entryY=0.989;entryDx=0;entryDy=0;entryPerimeter=0;" parent="1" source="5j7AbYeZaHDb51erD1fv-50" target="5j7AbYeZaHDb51erD1fv-144" edge="1">
          <mxGeometry width="50" height="50" relative="1" as="geometry">
            <mxPoint x="1130" y="840" as="sourcePoint" />
            <mxPoint x="1180" y="790" as="targetPoint" />
          </mxGeometry>
        </mxCell>
        <mxCell id="5j7AbYeZaHDb51erD1fv-148" value="" style="endArrow=classic;html=1;rounded=0;exitX=0.038;exitY=-0.011;exitDx=0;exitDy=0;exitPerimeter=0;entryX=0;entryY=0.887;entryDx=0;entryDy=0;entryPerimeter=0;" parent="1" source="5j7AbYeZaHDb51erD1fv-144" target="5j7AbYeZaHDb51erD1fv-136" edge="1">
          <mxGeometry width="50" height="50" relative="1" as="geometry">
            <mxPoint x="1340" y="950" as="sourcePoint" />
            <mxPoint x="1390" y="900" as="targetPoint" />
          </mxGeometry>
        </mxCell>
        <mxCell id="5j7AbYeZaHDb51erD1fv-155" value="&lt;font style=&quot;font-size: 25px;&quot;&gt;BookDto&lt;/font&gt;" style="text;html=1;align=center;verticalAlign=middle;resizable=0;points=[];autosize=1;strokeColor=none;fillColor=none;" parent="1" vertex="1">
          <mxGeometry x="1870" y="1553" width="120" height="40" as="geometry" />
        </mxCell>
        <mxCell id="5McTQiUJcS-NgEUO2w4d-2" value="" style="endArrow=classic;html=1;rounded=0;exitX=1;exitY=0.5;exitDx=0;exitDy=0;" edge="1" parent="1" source="5j7AbYeZaHDb51erD1fv-144">
          <mxGeometry width="50" height="50" relative="1" as="geometry">
            <mxPoint x="1100" y="1480" as="sourcePoint" />
            <mxPoint x="1120" y="1490" as="targetPoint" />
          </mxGeometry>
        </mxCell>
        <mxCell id="5McTQiUJcS-NgEUO2w4d-3" value="&lt;font style=&quot;font-size: 34px;&quot;&gt;if (request form dev)&lt;/font&gt;" style="text;html=1;align=center;verticalAlign=middle;resizable=0;points=[];autosize=1;strokeColor=none;fillColor=none;" vertex="1" parent="1">
          <mxGeometry x="965" y="1524" width="330" height="50" as="geometry" />
        </mxCell>
        <mxCell id="5McTQiUJcS-NgEUO2w4d-4" value="&lt;font style=&quot;font-size: 34px;&quot;&gt;if (request form default)&lt;/font&gt;" style="text;html=1;align=center;verticalAlign=middle;resizable=0;points=[];autosize=1;strokeColor=none;fillColor=none;" vertex="1" parent="1">
          <mxGeometry x="945" y="1624" width="370" height="50" as="geometry" />
        </mxCell>
        <mxCell id="5McTQiUJcS-NgEUO2w4d-5" value="&lt;div style=&quot;text-align: right; font-size: 38px;&quot;&gt;&lt;span style=&quot;background-color: initial;&quot;&gt;&lt;font style=&quot;font-size: 38px;&quot;&gt;library-service-count:4&lt;/font&gt;&lt;/span&gt;&lt;/div&gt;&lt;font style=&quot;font-size: 38px;&quot;&gt;&lt;div style=&quot;text-align: right;&quot;&gt;&lt;span style=&quot;background-color: initial;&quot;&gt;default&lt;/span&gt;&lt;/div&gt;&lt;/font&gt;" style="text;html=1;align=center;verticalAlign=middle;resizable=0;points=[];autosize=1;strokeColor=none;fillColor=none;" vertex="1" parent="1">
          <mxGeometry x="620" y="490" width="400" height="100" as="geometry" />
        </mxCell>
        <mxCell id="5McTQiUJcS-NgEUO2w4d-6" value="&lt;div style=&quot;font-size: 38px;&quot;&gt;&lt;span style=&quot;background-color: initial;&quot;&gt;&lt;font style=&quot;font-size: 38px;&quot;&gt;library-service-count:5&lt;/font&gt;&lt;/span&gt;&lt;/div&gt;&lt;div style=&quot;font-size: 38px;&quot;&gt;&lt;span style=&quot;background-color: initial;&quot;&gt;&lt;font style=&quot;font-size: 38px;&quot;&gt;dev&lt;/font&gt;&lt;/span&gt;&lt;/div&gt;" style="text;html=1;align=left;verticalAlign=middle;resizable=0;points=[];autosize=1;strokeColor=none;fillColor=none;" vertex="1" parent="1">
          <mxGeometry x="1140" y="490" width="400" height="100" as="geometry" />
        </mxCell>
        <mxCell id="5McTQiUJcS-NgEUO2w4d-7" value="&lt;div style=&quot;text-align: right; font-size: 38px;&quot;&gt;application.properties&lt;/div&gt;" style="text;html=1;align=center;verticalAlign=middle;resizable=0;points=[];autosize=1;strokeColor=none;fillColor=none;" vertex="1" parent="1">
          <mxGeometry x="630" y="640" width="380" height="60" as="geometry" />
        </mxCell>
        <mxCell id="5McTQiUJcS-NgEUO2w4d-8" value="&lt;div style=&quot;text-align: right; font-size: 38px;&quot;&gt;application.properties&lt;/div&gt;" style="text;html=1;align=center;verticalAlign=middle;resizable=0;points=[];autosize=1;strokeColor=none;fillColor=none;" vertex="1" parent="1">
          <mxGeometry x="1130" y="640" width="380" height="60" as="geometry" />
        </mxCell>
        <mxCell id="5McTQiUJcS-NgEUO2w4d-9" value="&lt;font style=&quot;font-size: 45px;&quot;&gt;SpringCloudConfigServer&lt;/font&gt;" style="rounded=0;whiteSpace=wrap;html=1;" vertex="1" parent="1">
          <mxGeometry x="2000" y="1850" width="630" height="230" as="geometry" />
        </mxCell>
        <mxCell id="5McTQiUJcS-NgEUO2w4d-10" value="" style="endArrow=classic;html=1;rounded=0;exitX=0.894;exitY=1.028;exitDx=0;exitDy=0;exitPerimeter=0;entryX=0.033;entryY=0;entryDx=0;entryDy=0;entryPerimeter=0;" edge="1" parent="1">
          <mxGeometry width="50" height="50" relative="1" as="geometry">
            <mxPoint x="2007.92" y="1192.52" as="sourcePoint" />
            <mxPoint x="2007.7899999999995" y="1850" as="targetPoint" />
          </mxGeometry>
        </mxCell>
        <mxCell id="5McTQiUJcS-NgEUO2w4d-11" value="" style="endArrow=classic;html=1;rounded=0;exitX=0.75;exitY=1;exitDx=0;exitDy=0;entryX=0.98;entryY=-0.004;entryDx=0;entryDy=0;entryPerimeter=0;" edge="1" parent="1" source="5j7AbYeZaHDb51erD1fv-74" target="5McTQiUJcS-NgEUO2w4d-9">
          <mxGeometry width="50" height="50" relative="1" as="geometry">
            <mxPoint x="2770" y="1830" as="sourcePoint" />
            <mxPoint x="2820" y="1780" as="targetPoint" />
          </mxGeometry>
        </mxCell>
        <mxCell id="5McTQiUJcS-NgEUO2w4d-12" value="&lt;font style=&quot;font-size: 45px;&quot;&gt;configs&lt;/font&gt;" style="rounded=0;whiteSpace=wrap;html=1;" vertex="1" parent="1">
          <mxGeometry x="2100" y="2320" width="400" height="180" as="geometry" />
        </mxCell>
        <mxCell id="5McTQiUJcS-NgEUO2w4d-13" value="" style="endArrow=classic;html=1;rounded=0;exitX=0.5;exitY=0;exitDx=0;exitDy=0;entryX=0.477;entryY=1.005;entryDx=0;entryDy=0;entryPerimeter=0;" edge="1" parent="1" source="5McTQiUJcS-NgEUO2w4d-12" target="5McTQiUJcS-NgEUO2w4d-9">
          <mxGeometry width="50" height="50" relative="1" as="geometry">
            <mxPoint x="2370" y="2200" as="sourcePoint" />
            <mxPoint x="2260" y="2270" as="targetPoint" />
          </mxGeometry>
        </mxCell>
        <mxCell id="5j7AbYeZaHDb51erD1fv-110" value="&lt;font style=&quot;font-size: 20px;&quot;&gt;false&lt;/font&gt;" style="text;html=1;align=center;verticalAlign=middle;resizable=0;points=[];autosize=1;strokeColor=none;fillColor=none;" parent="1" vertex="1">
          <mxGeometry x="2015" y="1360" width="70" height="40" as="geometry" />
        </mxCell>
        <mxCell id="5McTQiUJcS-NgEUO2w4d-16" value="&lt;font style=&quot;font-size: 45px;&quot;&gt;Classpath&lt;br&gt;Git&lt;/font&gt;" style="text;html=1;align=center;verticalAlign=middle;resizable=0;points=[];autosize=1;strokeColor=none;fillColor=none;" vertex="1" parent="1">
          <mxGeometry x="2190" y="2550" width="220" height="120" as="geometry" />
        </mxCell>
        <mxCell id="5McTQiUJcS-NgEUO2w4d-17" value="&lt;font style=&quot;font-size: 35px;&quot;&gt;library-service-dev.properties&lt;br&gt;library-service.properties&lt;br&gt;book-service.properties&lt;br&gt;book-service-dev.properties&lt;/font&gt;" style="text;html=1;align=center;verticalAlign=middle;resizable=0;points=[];autosize=1;strokeColor=none;fillColor=none;" vertex="1" parent="1">
          <mxGeometry x="2565" y="2330" width="470" height="180" as="geometry" />
        </mxCell>
        <mxCell id="5McTQiUJcS-NgEUO2w4d-19" value="&lt;font style=&quot;&quot;&gt;&lt;font style=&quot;font-size: 45px;&quot;&gt;Vault&lt;/font&gt;&lt;br&gt;&lt;/font&gt;" style="strokeWidth=2;html=1;shape=mxgraph.flowchart.database;whiteSpace=wrap;" vertex="1" parent="1">
          <mxGeometry x="1450" y="2170" width="295" height="300" as="geometry" />
        </mxCell>
        <mxCell id="5McTQiUJcS-NgEUO2w4d-20" value="" style="endArrow=classic;html=1;rounded=0;exitX=0;exitY=0.654;exitDx=0;exitDy=0;exitPerimeter=0;entryX=0.5;entryY=0;entryDx=0;entryDy=0;entryPerimeter=0;" edge="1" parent="1" source="5McTQiUJcS-NgEUO2w4d-9" target="5McTQiUJcS-NgEUO2w4d-19">
          <mxGeometry width="50" height="50" relative="1" as="geometry">
            <mxPoint x="1660" y="2010" as="sourcePoint" />
            <mxPoint x="1630" y="2000" as="targetPoint" />
            <Array as="points">
              <mxPoint x="1598" y="2000" />
            </Array>
          </mxGeometry>
        </mxCell>
      </root>
    </mxGraphModel>
  </diagram>
</mxfile>
